<svg xmlns="http://www.w3.org/2000/svg" viewBox="0 0 1600 1000" width="1600" height="1000" role="img" aria-label="スケジュール確認 / Schedule view">
  <defs>
    <marker id="tip" viewBox="0 0 10 10" refX="9" refY="5" markerWidth="7" markerHeight="7" orient="auto">
      <path d="M0 0 L10 5 L0 10 z" fill="#8b84a3"/>
    </marker>
  </defs>
  <rect width="1600" height="1000" fill="#f2eefb"/>
  <text x="64" y="84" fill="#2f2941" font-family="'Segoe UI',system-ui,sans-serif" font-size="30" font-weight="600" text-anchor="start" letter-spacing="0">スケジュール確認 / Schedule view</text>
  <line x1="64" y1="112" x2="1536" y2="112" stroke="#c9c2df" stroke-width="2"/>
  <text x="80" y="168" fill="#8b84a3" font-family="'Segoe UI',system-ui,sans-serif" font-size="16" font-weight="600" text-anchor="start" letter-spacing="1">MON</text><text x="280" y="168" fill="#8b84a3" font-family="'Segoe UI',system-ui,sans-serif" font-size="16" font-weight="600" text-anchor="start" letter-spacing="1">TUE</text><text x="480" y="168" fill="#8b84a3" font-family="'Segoe UI',system-ui,sans-serif" font-size="16" font-weight="600" text-anchor="start" letter-spacing="1">WED</text><text x="680" y="168" fill="#8b84a3" font-family="'Segoe UI',system-ui,sans-serif" font-size="16" font-weight="600" text-anchor="start" letter-spacing="1">THU</text><text x="880" y="168" fill="#8b84a3" font-family="'Segoe UI',system-ui,sans-serif" font-size="16" font-weight="600" text-anchor="start" letter-spacing="1">FRI</text><text x="1080" y="168" fill="#8b84a3" font-family="'Segoe UI',system-ui,sans-serif" font-size="16" font-weight="600" text-anchor="start" letter-spacing="1">SAT</text><text x="1280" y="168" fill="#8b84a3" font-family="'Segoe UI',system-ui,sans-serif" font-size="16" font-weight="600" text-anchor="start" letter-spacing="1">SUN</text><rect x="64" y="190" width="188" height="118" rx="8" fill="#ffffff" stroke="#c9c2df" stroke-width="2"/><text x="80" y="222" fill="#8b84a3" font-family="'Segoe UI',system-ui,sans-serif" font-size="15" font-weight="400" text-anchor="start" letter-spacing="0">1</text><rect x="264" y="190" width="188" height="118" rx="8" fill="#ffffff" stroke="#c9c2df" stroke-width="2"/><text x="280" y="222" fill="#8b84a3" font-family="'Segoe UI',system-ui,sans-serif" font-size="15" font-weight="400" text-anchor="start" letter-spacing="0">2</text><rect x="464" y="190" width="188" height="118" rx="8" fill="#ffffff" stroke="#c9c2df" stroke-width="2"/><text x="480" y="222" fill="#8b84a3" font-family="'Segoe UI',system-ui,sans-serif" font-size="15" font-weight="400" text-anchor="start" letter-spacing="0">3</text><rect x="664" y="190" width="188" height="118" rx="8" fill="#ffffff" stroke="#c9c2df" stroke-width="2"/><text x="680" y="222" fill="#8b84a3" font-family="'Segoe UI',system-ui,sans-serif" font-size="15" font-weight="400" text-anchor="start" letter-spacing="0">4</text><rect x="864" y="190" width="188" height="118" rx="8" fill="#ffffff" stroke="#c9c2df" stroke-width="2"/><text x="880" y="222" fill="#8b84a3" font-family="'Segoe UI',system-ui,sans-serif" font-size="15" font-weight="400" text-anchor="start" letter-spacing="0">5</text><rect x="1064" y="190" width="188" height="118" rx="8" fill="rgba(255,255,255,.4)" stroke="#c9c2df" stroke-width="2"/><text x="1080" y="222" fill="#8b84a3" font-family="'Segoe UI',system-ui,sans-serif" font-size="15" font-weight="400" text-anchor="start" letter-spacing="0">6</text><rect x="1264" y="190" width="188" height="118" rx="8" fill="rgba(255,255,255,.4)" stroke="#c9c2df" stroke-width="2"/><text x="1280" y="222" fill="#8b84a3" font-family="'Segoe UI',system-ui,sans-serif" font-size="15" font-weight="400" text-anchor="start" letter-spacing="0">7</text><rect x="64" y="320" width="188" height="118" rx="8" fill="#ffffff" stroke="#c9c2df" stroke-width="2"/><text x="80" y="352" fill="#8b84a3" font-family="'Segoe UI',system-ui,sans-serif" font-size="15" font-weight="400" text-anchor="start" letter-spacing="0">8</text><rect x="264" y="320" width="188" height="118" rx="8" fill="#ffffff" stroke="#c9c2df" stroke-width="2"/><text x="280" y="352" fill="#8b84a3" font-family="'Segoe UI',system-ui,sans-serif" font-size="15" font-weight="400" text-anchor="start" letter-spacing="0">9</text><rect x="464" y="320" width="188" height="118" rx="8" fill="#ffffff" stroke="#c9c2df" stroke-width="2"/><text x="480" y="352" fill="#8b84a3" font-family="'Segoe UI',system-ui,sans-serif" font-size="15" font-weight="400" text-anchor="start" letter-spacing="0">10</text><rect x="664" y="320" width="188" height="118" rx="8" fill="#ffffff" stroke="#c9c2df" stroke-width="2"/><text x="680" y="352" fill="#8b84a3" font-family="'Segoe UI',system-ui,sans-serif" font-size="15" font-weight="400" text-anchor="start" letter-spacing="0">11</text><rect x="864" y="320" width="188" height="118" rx="8" fill="#ffffff" stroke="#c9c2df" stroke-width="2"/><text x="880" y="352" fill="#8b84a3" font-family="'Segoe UI',system-ui,sans-serif" font-size="15" font-weight="400" text-anchor="start" letter-spacing="0">12</text><rect x="1064" y="320" width="188" height="118" rx="8" fill="rgba(255,255,255,.4)" stroke="#c9c2df" stroke-width="2"/><text x="1080" y="352" fill="#8b84a3" font-family="'Segoe UI',system-ui,sans-serif" font-size="15" font-weight="400" text-anchor="start" letter-spacing="0">13</text><rect x="1264" y="320" width="188" height="118" rx="8" fill="rgba(255,255,255,.4)" stroke="#c9c2df" stroke-width="2"/><text x="1280" y="352" fill="#8b84a3" font-family="'Segoe UI',system-ui,sans-serif" font-size="15" font-weight="400" text-anchor="start" letter-spacing="0">14</text><rect x="64" y="450" width="188" height="118" rx="8" fill="#ffffff" stroke="#c9c2df" stroke-width="2"/><text x="80" y="482" fill="#8b84a3" font-family="'Segoe UI',system-ui,sans-serif" font-size="15" font-weight="400" text-anchor="start" letter-spacing="0">15</text><rect x="264" y="450" width="188" height="118" rx="8" fill="#ffffff" stroke="#c9c2df" stroke-width="2"/><text x="280" y="482" fill="#8b84a3" font-family="'Segoe UI',system-ui,sans-serif" font-size="15" font-weight="400" text-anchor="start" letter-spacing="0">16</text><rect x="464" y="450" width="188" height="118" rx="8" fill="#ffffff" stroke="#c9c2df" stroke-width="2"/><text x="480" y="482" fill="#8b84a3" font-family="'Segoe UI',system-ui,sans-serif" font-size="15" font-weight="400" text-anchor="start" letter-spacing="0">17</text><rect x="664" y="450" width="188" height="118" rx="8" fill="#ffffff" stroke="#c9c2df" stroke-width="2"/><text x="680" y="482" fill="#8b84a3" font-family="'Segoe UI',system-ui,sans-serif" font-size="15" font-weight="400" text-anchor="start" letter-spacing="0">18</text><rect x="864" y="450" width="188" height="118" rx="8" fill="#ffffff" stroke="#c9c2df" stroke-width="2"/><text x="880" y="482" fill="#8b84a3" font-family="'Segoe UI',system-ui,sans-serif" font-size="15" font-weight="400" text-anchor="start" letter-spacing="0">19</text><rect x="1064" y="450" width="188" height="118" rx="8" fill="rgba(255,255,255,.4)" stroke="#c9c2df" stroke-width="2"/><text x="1080" y="482" fill="#8b84a3" font-family="'Segoe UI',system-ui,sans-serif" font-size="15" font-weight="400" text-anchor="start" letter-spacing="0">20</text><rect x="1264" y="450" width="188" height="118" rx="8" fill="rgba(255,255,255,.4)" stroke="#c9c2df" stroke-width="2"/><text x="1280" y="482" fill="#8b84a3" font-family="'Segoe UI',system-ui,sans-serif" font-size="15" font-weight="400" text-anchor="start" letter-spacing="0">21</text><rect x="64" y="580" width="188" height="118" rx="8" fill="#ffffff" stroke="#c9c2df" stroke-width="2"/><text x="80" y="612" fill="#8b84a3" font-family="'Segoe UI',system-ui,sans-serif" font-size="15" font-weight="400" text-anchor="start" letter-spacing="0">22</text><rect x="264" y="580" width="188" height="118" rx="8" fill="#ffffff" stroke="#c9c2df" stroke-width="2"/><text x="280" y="612" fill="#8b84a3" font-family="'Segoe UI',system-ui,sans-serif" font-size="15" font-weight="400" text-anchor="start" letter-spacing="0">23</text><rect x="464" y="580" width="188" height="118" rx="8" fill="#ffffff" stroke="#c9c2df" stroke-width="2"/><text x="480" y="612" fill="#8b84a3" font-family="'Segoe UI',system-ui,sans-serif" font-size="15" font-weight="400" text-anchor="start" letter-spacing="0">24</text><rect x="664" y="580" width="188" height="118" rx="8" fill="#ffffff" stroke="#c9c2df" stroke-width="2"/><text x="680" y="612" fill="#8b84a3" font-family="'Segoe UI',system-ui,sans-serif" font-size="15" font-weight="400" text-anchor="start" letter-spacing="0">25</text><rect x="864" y="580" width="188" height="118" rx="8" fill="#ffffff" stroke="#c9c2df" stroke-width="2"/><text x="880" y="612" fill="#8b84a3" font-family="'Segoe UI',system-ui,sans-serif" font-size="15" font-weight="400" text-anchor="start" letter-spacing="0">26</text><rect x="1064" y="580" width="188" height="118" rx="8" fill="rgba(255,255,255,.4)" stroke="#c9c2df" stroke-width="2"/><text x="1080" y="612" fill="#8b84a3" font-family="'Segoe UI',system-ui,sans-serif" font-size="15" font-weight="400" text-anchor="start" letter-spacing="0">27</text><rect x="1264" y="580" width="188" height="118" rx="8" fill="rgba(255,255,255,.4)" stroke="#c9c2df" stroke-width="2"/><text x="1280" y="612" fill="#8b84a3" font-family="'Segoe UI',system-ui,sans-serif" font-size="15" font-weight="400" text-anchor="start" letter-spacing="0">28</text><rect x="64" y="710" width="188" height="118" rx="8" fill="#ffffff" stroke="#c9c2df" stroke-width="2"/><text x="80" y="742" fill="#8b84a3" font-family="'Segoe UI',system-ui,sans-serif" font-size="15" font-weight="400" text-anchor="start" letter-spacing="0">29</text><rect x="264" y="710" width="188" height="118" rx="8" fill="#ffffff" stroke="#c9c2df" stroke-width="2"/><text x="280" y="742" fill="#8b84a3" font-family="'Segoe UI',system-ui,sans-serif" font-size="15" font-weight="400" text-anchor="start" letter-spacing="0">30</text><rect x="464" y="710" width="188" height="118" rx="8" fill="#ffffff" stroke="#c9c2df" stroke-width="2"/><text x="480" y="742" fill="#8b84a3" font-family="'Segoe UI',system-ui,sans-serif" font-size="15" font-weight="400" text-anchor="start" letter-spacing="0">31</text><rect x="664" y="710" width="188" height="118" rx="8" fill="#ffffff" stroke="#c9c2df" stroke-width="2"/><text x="680" y="742" fill="#8b84a3" font-family="'Segoe UI',system-ui,sans-serif" font-size="15" font-weight="400" text-anchor="start" letter-spacing="0">32</text><rect x="864" y="710" width="188" height="118" rx="8" fill="#ffffff" stroke="#c9c2df" stroke-width="2"/><text x="880" y="742" fill="#8b84a3" font-family="'Segoe UI',system-ui,sans-serif" font-size="15" font-weight="400" text-anchor="start" letter-spacing="0">33</text><rect x="1064" y="710" width="188" height="118" rx="8" fill="rgba(255,255,255,.4)" stroke="#c9c2df" stroke-width="2"/><text x="1080" y="742" fill="#8b84a3" font-family="'Segoe UI',system-ui,sans-serif" font-size="15" font-weight="400" text-anchor="start" letter-spacing="0">34</text><rect x="1264" y="710" width="188" height="118" rx="8" fill="rgba(255,255,255,.4)" stroke="#c9c2df" stroke-width="2"/><text x="1280" y="742" fill="#8b84a3" font-family="'Segoe UI',system-ui,sans-serif" font-size="15" font-weight="400" text-anchor="start" letter-spacing="0">35</text><rect x="76" y="242" width="564" height="26" rx="13" fill="#8f7fe0" opacity="0.75"/><rect x="476" y="372" width="364" height="26" rx="13" fill="#e492bf" opacity="0.75"/><rect x="276" y="502" width="764" height="26" rx="13" fill="#6fb3e4" opacity="0.75"/><rect x="876" y="632" width="364" height="26" rx="13" fill="#7dc7ae" opacity="0.75"/><rect x="76" y="762" width="964" height="26" rx="13" fill="#e5a86a" opacity="0.75"/>
</svg>
