<svg xmlns="http://www.w3.org/2000/svg" viewBox="0 0 1600 1000" width="1600" height="1000" role="img" aria-label="物件画像 自動アノテーション / Async pipeline">
  <defs>
    <marker id="tip" viewBox="0 0 10 10" refX="9" refY="5" markerWidth="7" markerHeight="7" orient="auto">
      <path d="M0 0 L10 5 L0 10 z" fill="#8b84a3"/>
    </marker>
  </defs>
  <rect width="1600" height="1000" fill="#f2eefb"/>
  <text x="64" y="84" fill="#2f2941" font-family="'Segoe UI',system-ui,sans-serif" font-size="30" font-weight="600" text-anchor="start" letter-spacing="0">物件画像 自動アノテーション / Async pipeline</text>
  <line x1="64" y1="112" x2="1536" y2="112" stroke="#c9c2df" stroke-width="2"/>
  <rect x="64" y="330" width="250" height="150" rx="14" fill="#ffffff" stroke="#c9c2df" stroke-width="2"/><rect x="64" y="330" width="250" height="6" rx="3" fill="#8f7fe0"/><text x="189" y="396" fill="#2f2941" font-family="'Segoe UI',system-ui,sans-serif" font-size="22" font-weight="600" text-anchor="middle" letter-spacing="0">Upload</text><text x="189" y="430" fill="#8b84a3" font-family="'Segoe UI',system-ui,sans-serif" font-size="17" font-weight="400" text-anchor="middle" letter-spacing="0">S3</text><line x1="326" y1="405" x2="357.5" y2="405" stroke="#8b84a3" stroke-width="2.5" marker-end="url(#tip)"/><rect x="369.5" y="330" width="250" height="150" rx="14" fill="#ffffff" stroke="#c9c2df" stroke-width="2"/><rect x="369.5" y="330" width="250" height="6" rx="3" fill="#e492bf"/><text x="494.5" y="396" fill="#2f2941" font-family="'Segoe UI',system-ui,sans-serif" font-size="22" font-weight="600" text-anchor="middle" letter-spacing="0">Pre-process</text><text x="494.5" y="430" fill="#8b84a3" font-family="'Segoe UI',system-ui,sans-serif" font-size="17" font-weight="400" text-anchor="middle" letter-spacing="0">OpenCV</text><line x1="631.5" y1="405" x2="663" y2="405" stroke="#8b84a3" stroke-width="2.5" marker-end="url(#tip)"/><rect x="675" y="330" width="250" height="150" rx="14" fill="#ffffff" stroke="#c9c2df" stroke-width="2"/><rect x="675" y="330" width="250" height="6" rx="3" fill="#6fb3e4"/><text x="800" y="396" fill="#2f2941" font-family="'Segoe UI',system-ui,sans-serif" font-size="22" font-weight="600" text-anchor="middle" letter-spacing="0">Invoke</text><text x="800" y="430" fill="#8b84a3" font-family="'Segoe UI',system-ui,sans-serif" font-size="17" font-weight="400" text-anchor="middle" letter-spacing="0">AWS Lambda</text><line x1="937" y1="405" x2="968.5" y2="405" stroke="#8b84a3" stroke-width="2.5" marker-end="url(#tip)"/><rect x="980.5" y="330" width="250" height="150" rx="14" fill="#ffffff" stroke="#c9c2df" stroke-width="2"/><rect x="980.5" y="330" width="250" height="6" rx="3" fill="#7dc7ae"/><text x="1105.5" y="396" fill="#2f2941" font-family="'Segoe UI',system-ui,sans-serif" font-size="22" font-weight="600" text-anchor="middle" letter-spacing="0">Inference</text><text x="1105.5" y="430" fill="#8b84a3" font-family="'Segoe UI',system-ui,sans-serif" font-size="17" font-weight="400" text-anchor="middle" letter-spacing="0">PyTorch</text><line x1="1242.5" y1="405" x2="1274" y2="405" stroke="#8b84a3" stroke-width="2.5" marker-end="url(#tip)"/><rect x="1286" y="330" width="250" height="150" rx="14" fill="#ffffff" stroke="#c9c2df" stroke-width="2"/><rect x="1286" y="330" width="250" height="6" rx="3" fill="#e5a86a"/><text x="1411" y="396" fill="#2f2941" font-family="'Segoe UI',system-ui,sans-serif" font-size="22" font-weight="600" text-anchor="middle" letter-spacing="0">Tags</text><text x="1411" y="430" fill="#8b84a3" font-family="'Segoe UI',system-ui,sans-serif" font-size="17" font-weight="400" text-anchor="middle" letter-spacing="0">FastAPI</text><text x="64" y="600" fill="#8b84a3" font-family="'Segoe UI',system-ui,sans-serif" font-size="20" font-weight="400" text-anchor="start" letter-spacing="0">前処理を分離し、解析は Lambda 経由で非同期実行。モデル差し替え時も API 側は無改修。</text>
</svg>
